<svg data-v-0dd9719b="" version="1.0" xmlns="http://www.w3.org/2000/svg" xmlns:xlink="http://www.w3.org/1999/xlink" width="100%" height="100%" viewBox="0 0 340.000000 250.000000" preserveAspectRatio="xMidYMid meet" color-interpolation-filters="sRGB" style="margin: auto;"> <rect data-v-0dd9719b="" x="0" y="0" width="100%" height="100%" fill="#fff" fill-opacity="1" class="background"></rect> <rect data-v-0dd9719b="" x="0" y="0" width="100%" height="100%" fill="url(#watermark)" fill-opacity="1" class="watermarklayer"></rect> <g data-v-0dd9719b="" fill="#4c4c4c" class="icon-text-wrapper icon-svg-group iconsvg" transform="translate(49.16028594970703,91.917724609375)"><g class="iconsvg-imagesvg" transform="translate(0,0)"><g><rect fill="#4c4c4c" fill-opacity="0" stroke-width="2" x="0" y="0" width="60" height="66.16455123893122" class="image-rect"></rect> <svg x="0" y="0" width="60" height="66.16455123893122" filtersec="colorsb6647251536" class="image-svg-svg primary" style="overflow: visible;"><svg xmlns="http://www.w3.org/2000/svg" viewBox="0 -0.0037206772249192 12.910966873168945 14.237441062927246"><g><g fill-rule="evenodd"><path d="M5.33.31l-4.2 2.42L4 4.37l2.5-1.44L10.09 5v4.21l-3.63 2.1L4 9.87 1.13 11.5l4.19 2.42a2.21 2.21 0 0 0 2.27 0l4.19-2.42a2.22 2.22 0 0 0 1.13-2V4.7a2.22 2.22 0 0 0-1.13-2L7.59.31a2.21 2.21 0 0 0-2.27 0zM0 4.7l2.83 1.63V7.9L0 9.54z" fill="#4c4c4c"></path><path fill="#0b56a6" d="M5.31 7.12L0 10.19V4.05l5.31 3.07z"></path></g></g></svg></svg> <!----></g></g> <g transform="translate(67,4.621026992797852)"><g data-gra="path-name" fill-rule="" class="tp-name iconsvg-namesvg" transform="translate(0,0)"><g transform="scale(1)"><g><path d="M9.8-30.28L9.8-30.28Q9.18-30.63 8.02-31.35 6.86-32.08 6.33-32.39L6.33-32.39Q4.04-33.66 5.67-35.82L5.67-35.82Q6.9-37.57 8.75-36.65L8.75-36.65Q9.54-36.21 11.1-35.31 12.66-34.41 12.83-34.32L12.83-34.32Q13.93-33.66 14.06-32.89 14.19-32.12 13.4-31.03L13.4-31.03Q11.82-28.74 9.8-30.28ZM7.69-17.89L7.69-17.89Q5.71-19.16 4.04-20.08L4.04-20.08Q1.93-21.27 3.38-23.38L3.38-23.38Q4.57-25.22 6.42-24.35L6.42-24.35Q8.75-23.2 10.72-22.06L10.72-22.06Q11.78-21.4 11.89-20.61 12-19.82 11.29-18.76L11.29-18.76Q9.8-16.44 7.69-17.89ZM6.99-6.64L6.99-6.64Q7.16-6.94 8.17-8.79 9.18-10.63 9.71-11.65L9.71-11.65Q11.16-14.37 13.32-12.22L13.32-12.22Q14.77-10.77 13.93-9.01L13.93-9.01Q11.21-3.56 8.79 0.79L8.79 0.79Q7.25 3.34 5.01 1.41L5.01 1.41Q4.04 0.57 3.87-0.22 3.69-1.01 4.31-2.11L4.31-2.11Q4.53-2.46 5.49-4.06 6.46-5.67 6.99-6.64ZM30.19-30.28L30.19-30.28 39.46-30.28Q40.78-30.28 41.59-29.49 42.41-28.7 42.41-27.38L42.41-27.38 42.41-22.06Q42.41-19.38 39.73-19.38 37.05-19.38 37.05-22.06L37.05-22.06 37.05-24.21Q37.05-25.27 35.95-25.27L35.95-25.27 29.97-25.27Q29.84-22.54 29.53-20.17L29.53-20.17 31.51-20.17Q32.3-20.17 32.76-19.71 33.22-19.25 33.22-18.46L33.22-18.46 33.22-3.47Q33.22-2.33 33.42-2 33.62-1.67 34.32-1.67L34.32-1.67 37.18-1.67Q37.88-1.67 38.14-2.77L38.14-2.77Q38.28-4.97 39.09-6.44 39.9-7.91 41.4-7.21L41.4-7.21Q42.28-6.81 42.58-5.38 42.89-3.96 42.76-2.55L42.76-2.55Q42.28 0.66 41.11 1.93 39.95 3.21 37.62 3.21L37.62 3.21 33.49 3.21Q30.23 3.21 29.14 1.78 28.04 0.35 28.04-3.47L28.04-3.47 28.04-12.22Q25.36-3.12 19.16 2.07L19.16 2.07Q16.66 3.91 14.94 2.07L14.94 2.07Q12.88-0.13 16-2.46L16-2.46Q20.52-6.37 22.48-12 24.43-17.62 24.83-25.27L24.83-25.27 21.27-25.27Q20.21-25.27 20.21-24.21L20.21-24.21 20.21-21.93Q20.21-19.38 17.67-19.38 15.12-19.38 15.12-21.93L15.12-21.93 15.12-27.38Q15.12-28.7 15.93-29.49 16.74-30.28 18.06-30.28L18.06-30.28 24.96-30.28Q25-31.99 25-35.46L25-35.46Q25-38.1 27.69-38.1L27.69-38.1Q30.28-38.1 30.28-35.51L30.28-35.51Q30.28-34.63 30.26-32.89 30.23-31.16 30.19-30.28ZM63.68-13.49L63.68-13.49Q63.68-9.76 62.03-8.04 60.38-6.33 56.78-6.33L56.78-6.33Q56.03-6.37 55.57-6.77 55.11-7.16 55.02-7.82L55.02-7.82Q54.98-8.26 54.8-9.01L54.8-9.01Q54.4-9.98 54.8-10.55 55.2-11.12 56.25-11.07L56.25-11.07 56.34-11.07Q57.3-11.16 57.83-11.47L57.83-11.47Q58.75-12.08 58.75-14.11L58.75-14.11Q58.67-17.18 56.65-20L56.65-20Q54.76-22.28 55.5-24.26L55.5-24.26Q56.43-26.81 57.92-31.6L57.92-31.6 54.54-31.6Q53.48-31.6 53.48-30.5L53.48-30.5 53.48 1.36Q53.48 3.78 51.02 3.78 48.56 3.78 48.56 1.36L48.56 1.36 48.56-33.44Q48.56-34.76 49.35-35.55 50.14-36.34 51.46-36.34L51.46-36.34 61.04-36.34Q62.58-36.34 63.19-35.38 63.81-34.41 63.28-32.56L63.28-32.56Q61.74-27.69 59.63-22.85L59.63-22.85Q63.68-18.54 63.68-13.49ZM80.99-5.71L80.99-15.47 70.49-15.47 70.49-5.71Q70.49-4.61 71.54-4.61L71.54-4.61 79.94-4.61Q80.99-4.61 80.99-5.71L80.99-5.71ZM70.49-29.4L70.49-20.43 80.99-20.43 80.99-29.4Q80.99-30.45 79.94-30.45L79.94-30.45 71.54-30.45Q70.49-30.45 70.49-29.4L70.49-29.4ZM68.29-35.46L68.29-35.46 83.41-35.46Q84.73-35.46 85.54-34.65 86.35-33.84 86.35-32.52L86.35-32.52 86.35-2.55Q86.35-1.23 85.54-0.44 84.73 0.35 83.41 0.35L83.41 0.35 68.29 0.35Q66.97 0.35 66.18-0.44 65.39-1.23 65.39-2.55L65.39-2.55 65.39-32.52Q65.39-33.84 66.18-34.65 66.97-35.46 68.29-35.46ZM99.36-29.44L99.36-29.44Q98.79-29.93 97.62-30.78 96.46-31.64 95.98-32.04L95.98-32.04Q93.78-33.53 95.58-35.51L95.58-35.51Q96.99-37.05 98.79-36.04L98.79-36.04Q101.73-34.15 103.1-33.05L103.1-33.05Q104.81-31.55 103.14-29.71L103.14-29.71Q101.34-27.64 99.36-29.44ZM97.21-17.45L97.21-17.45Q95.8-18.59 93.74-19.95L93.74-19.95Q91.54-21.36 93.3-23.38L93.3-23.38Q94.61-24.96 96.33-24.04L96.33-24.04Q98.48-22.9 100.85-21.18L100.85-21.18Q101.87-20.39 101.87-19.64 101.87-18.9 100.99-17.89L100.99-17.89Q99.18-15.78 97.21-17.45ZM96.33-6.72L96.33-6.72Q98.92-11.25 99.05-11.51L99.05-11.51Q100.55-14.33 102.83-12.22L102.83-12.22Q104.41-10.77 103.49-8.83L103.49-8.83Q101.21-4.17 98.57 0.53L98.57 0.53Q96.99 3.25 94.57 1.27L94.57 1.27Q92.46-0.4 93.82-2.46L93.82-2.46Q95.36-4.92 96.33-6.72ZM130.47 1.89L130.47 1.89 108.28 1.89Q106.96 1.89 106.15 1.08 105.34 0.26 105.34-1.05L105.34-1.05 105.34-32.65Q105.34-33.97 106.15-34.78 106.96-35.6 108.28-35.6L108.28-35.6 129.64-35.6Q132.28-35.6 132.28-33L132.28-33Q132.28-30.32 129.64-30.32L129.64-30.32 111.93-30.32Q110.83-30.32 110.83-29.27L110.83-29.27 110.83-4.39Q110.83-3.34 111.93-3.34L111.93-3.34 130.47-3.34Q133.07-3.34 133.07-0.7L133.07-0.7Q133.07 1.89 130.47 1.89ZM169.76-30.1L169.76-30.1Q167.7-28.52 165.1-26.94L165.1-26.94Q163.17-25.88 161.67-27.38L161.67-27.38Q160.49-28.61 160.69-29.49 160.88-30.37 162.42-31.2L162.42-31.2Q166.33-33.44 168.97-36.08L168.97-36.08Q170.33-37.66 172.49-36.83L172.49-36.83Q175.47-35.55 173.23-33.22L173.23-33.22Q171.47-31.46 169.76-30.1ZM155.92-23.47L155.92-23.47Q155.17-25.31 153.72-28.08L153.72-28.08Q152.49-30.01 154.73-30.98L154.73-30.98Q156.45-31.68 157.41-30.19L157.41-30.19Q159.08-27.69 160.18-24.83L160.18-24.83Q160.53-23.82 160.27-23.25 160-22.68 158.99-22.24L158.99-22.24Q156.67-21.18 155.92-23.47ZM156.4-32.39L156.4-32.39Q152.01-31.11 144.49-30.06L144.49-30.06Q143.22-25.27 141.28-21.75L141.28-21.75Q140.71-20.7 140.01-20.57 139.31-20.43 138.34-21.09L138.34-21.09Q137.29-21.8 137.09-22.59 136.89-23.38 137.5-24.48L137.5-24.48Q139.04-27.51 140.1-32.26L140.1-32.26Q140.32-33.49 141.26-34.1 142.21-34.72 143.53-34.5L143.53-34.5 144.67-34.28Q149.94-35.29 154.29-36.69L154.29-36.69Q156.01-37.31 157.32-35.73L157.32-35.73Q159.43-33.27 156.4-32.39ZM146.95-24.57L146.95-24.57Q146.87-24.92 146.67-25.69 146.47-26.46 146.34-26.85L146.34-26.85Q145.68-28.92 147.83-29.53L147.83-29.53Q149.68-30.06 150.34-28.3L150.34-28.3Q150.73-27.25 151.26-25.44L151.26-25.44Q151.7-23.64 149.77-22.98L149.77-22.98Q147.39-22.19 146.95-24.57ZM140.41-16.7L140.41-16.7 146.73-16.7 146.73-19.2Q146.73-21.75 149.28-21.75L149.28-21.75Q151.79-21.75 151.79-19.2L151.79-19.2 151.79-16.7 159.3-16.7Q159.48-16.7 159.48-16.52L159.48-16.52 159.48-16.39Q166.2-19.25 170.33-23.73L170.33-23.73Q171.65-25.36 173.8-24.52L173.8-24.52Q176.66-23.33 174.64-20.92L174.64-20.92Q170.9-16.74 165.28-13.58L165.28-13.58Q162.95-12.39 161.32-14.37L161.32-14.37Q160.49-15.42 159.48-16.26L159.48-16.26 159.48-13.97Q159.48-13.05 158.95-12.52 158.42-12 157.5-12L157.5-12 151.79-12 151.79-10.99Q155.13-8.75 158.33-6.37L158.33-6.37Q159.21-5.54 159.19-5.03 159.17-4.53 158.38-3.47L158.38-3.47Q157.5-2.29 156.77-2.18 156.05-2.07 155-3.03L155-3.03Q153.68-4.35 151.79-6.02L151.79-6.02 151.79 1.36Q151.79 3.87 149.28 3.87L149.28 3.87Q146.73 3.87 146.73 1.36L146.73 1.36 146.73-6.24Q144.14-2.59 141.5 0L141.5 0Q140.36 1.05 139.57 1.01 138.78 0.97 137.86-0.26L137.86-0.26Q136.93-1.58 137.11-2.44 137.29-3.3 138.56-4.26L138.56-4.26Q142.12-7.38 144.98-12L144.98-12 140.41-12Q138.08-12 138.08-14.37L138.08-14.37Q138.08-16.7 140.41-16.7ZM171.21-2.37L171.21-2.37Q168 0.44 163.74 2.72L163.74 2.72Q161.19 3.96 159.7 2.07L159.7 2.07Q158.6 0.53 159.02-0.4 159.43-1.32 161.24-2.15L161.24-2.15Q168.09-5.63 171.87-11.16L171.87-11.16Q173.19-13.4 175.61-12.48L175.61-12.48Q178.55-11.43 176.84-8.7L176.84-8.7Q174.2-4.97 171.21-2.37Z" transform="translate(-2.78941011428833, 38.099998474121094)"></path></g> <!----> <!----> <!----> <!----> <!----> <!----> <!----></g></g> <g data-gra="path-slogan" fill-rule="" class="tp-slogan iconsvg-slogansvg" fill="#4c4c4c" transform="translate(5,47.96999740600586)"><rect x="0" height="1" y="3.9750003814697266" width="24.703887939453125"></rect> <rect height="1" y="3.9750003814697266" width="24.703887939453125" x="139.9755401611328"></rect> <g transform="translate(27.703887939453125,0)"><g transform="scale(1)"><path d="M7.17-6.09L7.17-6.09L6.09-6.09Q6-7.73 3.94-7.83L3.94-7.83Q2.02-7.78 2.02-6.33L2.02-6.33Q2.02-5.39 3.05-5.25L3.05-5.25L5.48-4.69Q7.41-4.22 7.41-2.34L7.41-2.34Q7.36 0.05 4.03 0.14L4.03 0.14Q2.20 0.14 1.45-0.61L1.45-0.61Q0.52-1.31 0.56-2.77L0.56-2.77L1.69-2.77Q1.73-0.80 4.03-0.75L4.03-0.75Q6.28-0.80 6.33-2.20L6.33-2.20Q6.52-3.38 4.45-3.75L4.45-3.75L2.67-4.13Q0.84-4.64 0.84-6.19L0.84-6.19Q0.98-8.72 3.84-8.81L3.84-8.81Q7.08-8.81 7.17-6.09ZM10.03-5.06L14.53-5.06L14.53-8.58L15.70-8.58L15.70 0L14.53 0L14.53-3.98L10.03-3.98L10.03 0L8.86 0L8.86-8.58L10.03-8.58L10.03-5.06ZM18.80-1.03L23.95-1.03L23.95 0L17.63 0L17.63-8.58L23.86-8.58L23.86-7.59L18.80-7.59L18.80-4.92L23.48-4.92L23.48-3.89L18.80-3.89L18.80-1.03ZM26.86-8.58L31.17-1.64L31.17-8.58L32.30-8.58L32.30 0L30.98 0L26.63-6.94L26.58-6.94L26.58 0L25.45 0L25.45-8.58L26.86-8.58ZM41.02-8.58L37.78-3.47L37.78 0L36.61 0L36.61-3.47L33.38-8.58L34.73-8.58L37.17-4.45L39.66-8.58L41.02-8.58ZM47.72 0L46.88-2.48L43.41-2.48L42.52 0L41.34 0L44.58-8.58L45.89-8.58L48.98 0L47.72 0ZM45.14-7.31L43.78-3.52L46.45-3.52L45.19-7.31L45.14-7.31ZM51.42-8.58L55.73-1.64L55.73-8.58L56.86-8.58L56.86 0L55.55 0L51.19-6.94L51.14-6.94L51.14 0L50.02 0L50.02-8.58L51.42-8.58ZM65.06-3.61L62.44-3.61L62.44-4.59L66.19-4.59L66.19 0L65.44 0L65.16-1.08Q64.17 0.09 62.34 0.14L62.34 0.14Q60.61 0.14 59.67-0.75L59.67-0.75Q58.27-2.06 58.31-4.36L58.31-4.36Q58.64-8.63 62.39-8.81L62.39-8.81Q65.58-8.63 66.05-6L66.05-6L64.92-6Q64.45-7.78 62.34-7.83L62.34-7.83Q59.67-7.64 59.53-4.31L59.53-4.31Q59.53-0.75 62.39-0.75L62.39-0.75Q63.42-0.75 64.17-1.31L64.17-1.31Q65.11-2.06 65.06-3.61L65.06-3.61ZM72.47-5.06L76.97-5.06L76.97-8.58L78.14-8.58L78.14 0L76.97 0L76.97-3.98L72.47-3.98L72.47 0L71.30 0L71.30-8.58L72.47-8.58L72.47-5.06ZM85.59-3.19L85.59-8.58L86.77-8.58L86.77-3.05Q86.63 0.05 83.25 0.14L83.25 0.14Q80.11 0.05 79.97-2.86L79.97-2.86L79.97-8.58L81.14-8.58L81.14-3.19Q81.19-0.84 83.30-0.80L83.30-0.80Q85.59-0.84 85.59-3.19L85.59-3.19ZM88.73-8.58L89.91-8.58L89.91 0L88.73 0L88.73-8.58ZM99.05-6.05L99.05-6.05L97.92-6.05Q97.50-7.78 95.53-7.83L95.53-7.83Q92.81-7.69 92.72-4.36L92.72-4.36Q92.72-0.80 95.58-0.80L95.58-0.80Q97.55-0.84 98.02-3.19L98.02-3.19L99.14-3.19Q98.63 0.05 95.34 0.14L95.34 0.14Q91.59 0 91.50-4.31L91.50-4.31Q91.69-8.63 95.53-8.81L95.53-8.81Q98.58-8.72 99.05-6.05ZM106.17 0L105.33-2.48L101.86-2.48L100.97 0L99.80 0L103.03-8.58L104.34-8.58L107.44 0L106.17 0ZM103.59-7.31L102.23-3.52L104.91-3.52L103.64-7.31L103.59-7.31ZM108.66-8.58L109.83-8.58L109.83 0L108.66 0L108.66-8.58Z" transform="translate(-0.5602678571428572, 8.8125)"></path></g></g></g></g></g><defs v-gra="od"></defs></svg>